<?xml version="1.0" encoding="utf-8"?>
<!-- Generator: Adobe Illustrator 26.1.0, SVG Export Plug-In . SVG Version: 6.00 Build 0)  -->
<svg version="1.1" id="Layer_1" xmlns="http://www.w3.org/2000/svg" xmlns:xlink="http://www.w3.org/1999/xlink" x="0px" y="0px"
	 viewBox="0 0 1920 1080" style="enable-background:new 0 0 1920 1080;" xml:space="preserve">
<style type="text/css">
	.st0{fill:#1C75BC;}
	.st1{fill:#39B54A;}
	.st2{fill:#FFFFFF;}
	.st3{opacity:0.5;}
	.st4{opacity:0.5;fill:#FFFFFF;}
</style>
<rect x="-23" y="-15" class="st1" width="1966" height="1110"/>
<g>
	<g>
		<g>
			<g>
				<g>
					<path class="st2" d="M943.08,415.17c-1.62-1.34-3.39-2.45-5.3-3.33c-1.92-0.88-3.85-1.65-5.8-2.3
						c-1.95-0.66-3.73-1.31-5.35-1.97c-1.62-0.66-2.92-1.44-3.91-2.34c-0.99-0.91-1.48-2.1-1.48-3.58c0-1.59,0.66-2.81,1.97-3.66
						c1.31-0.85,3.1-1.28,5.35-1.28c2.24,0,4.26,0.44,6.04,1.32c1.78,0.88,3.55,2.22,5.31,4.03l8.39-8.31
						c-2.19-2.47-4.98-4.41-8.35-5.84c-3.38-1.43-7.09-2.14-11.15-2.14c-4,0-7.54,0.67-10.61,2.02c-3.07,1.34-5.47,3.3-7.2,5.88
						c-1.73,2.58-2.59,5.65-2.59,9.21c0,2.96,0.5,5.41,1.48,7.36s2.29,3.56,3.9,4.85c1.62,1.29,3.39,2.36,5.31,3.21
						c1.92,0.85,3.85,1.6,5.8,2.26c1.94,0.66,3.73,1.35,5.34,2.06c1.62,0.71,2.92,1.56,3.91,2.55c0.99,0.99,1.48,2.28,1.48,3.87
						c0,1.76-0.76,3.13-2.26,4.11c-1.51,0.99-3.64,1.48-6.38,1.48c-3.01,0-5.66-0.59-7.94-1.77c-2.27-1.18-4.34-2.84-6.21-4.98
						l-8.39,8.31c2.85,3.18,5.99,5.55,9.42,7.11s7.53,2.35,12.3,2.35c6.96,0,12.42-1.58,16.36-4.73c3.95-3.15,5.92-7.5,5.92-13.04
						c0-3.02-0.49-5.55-1.48-7.61C946,418.22,944.69,416.52,943.08,415.17z"/>
					<polygon class="st2" points="954.71,397.94 972.9,397.94 972.9,444.74 985.81,444.74 985.81,397.94 1003.98,397.94 
						1003.98,386.68 954.71,386.68 					"/>
					<path class="st2" d="M1043.56,420.35c1.99-0.35,3.83-0.89,5.5-1.67c2.94-1.45,5.25-3.44,6.92-5.99c1.63-2.52,2.45-5.5,2.45-8.9
						c0-3.33-0.82-6.31-2.45-8.9c-1.67-2.55-3.94-4.58-6.85-6.03c-2.91-1.45-6.28-2.2-10.11-2.2h-23.69v58.1h12.91v-23.94h1.35
						l17.34,23.94h15.29L1043.56,420.35z M1037.46,411.27h-9.22v-14.58h9.29c2.59,0,4.58,0.71,5.92,2.06
						c1.38,1.38,2.06,3.12,2.06,5.21c0,2.23-0.67,4.01-2.09,5.32C1042.03,410.6,1040.05,411.27,1037.46,411.27z"/>
					<path class="st2" d="M1100.45,386.66h-11.67l-23.02,58.1h13.41l3.87-10.53h22.73l3.83,10.53h13.65L1100.45,386.66z
						 M1086.86,423.69l7.63-20.71l7.48,20.71H1086.86z"/>
					<polygon class="st2" points="1123.08,397.94 1141.26,397.94 1141.26,444.74 1154.17,444.74 1154.17,397.94 1172.35,397.94 
						1172.35,386.68 1123.08,386.68 					"/>
					<polygon class="st2" points="1213.42,418.63 1192.91,386.68 1183.69,386.68 1183.69,444.74 1196.53,444.74 1196.53,412.53 
						1209.11,432.24 1217.67,432.24 1230.25,412.63 1230.25,444.74 1243.16,444.74 1243.16,386.68 1233.87,386.68 					"/>
					<rect x="1258.38" y="386.68" class="st2" width="12.91" height="58.07"/>
					<path class="st2" d="M1314.81,420.35c1.99-0.35,3.87-0.89,5.5-1.67c2.98-1.45,5.25-3.44,6.92-5.99c1.63-2.52,2.48-5.5,2.48-8.9
						c0-3.33-0.85-6.31-2.48-8.9c-1.67-2.55-3.94-4.58-6.85-6.03c-2.91-1.45-6.28-2.2-10.11-2.2h-23.69v58.1h12.91v-23.94h1.35
						l17.34,23.94h15.29L1314.81,420.35z M1308.71,411.27h-9.22v-14.58h9.29c2.59,0,4.58,0.71,5.92,2.06
						c1.38,1.38,2.06,3.12,2.06,5.21c0,2.23-0.67,4.01-2.09,5.32C1313.29,410.6,1311.3,411.27,1308.71,411.27z"/>
					<polygon class="st2" points="1356.09,433.56 1356.09,420.48 1382,420.48 1382,409.7 1356.09,409.7 1356.09,397.78 
						1384.47,397.78 1384.47,386.68 1356.09,386.68 1353.05,386.68 1343.18,386.68 1343.18,444.74 1353.05,444.74 1356.09,444.74 
						1384.88,444.74 1384.88,433.56 					"/>
				</g>
				<g>
					<path class="st2" d="M942.62,513.55c-2.19,0.93-4.77,1.4-7.73,1.4c-2.52,0-4.84-0.44-6.95-1.32c-2.11-0.88-3.92-2.11-5.43-3.7
						c-1.51-1.59-2.69-3.51-3.54-5.76c-0.85-2.25-1.28-4.74-1.28-7.49c0-2.68,0.42-5.15,1.28-7.4c0.85-2.25,2.03-4.17,3.54-5.76
						c1.5-1.59,3.31-2.81,5.43-3.66c2.11-0.85,4.43-1.28,6.95-1.28c2.85,0,5.36,0.47,7.53,1.4c2.17,0.93,4.02,2.22,5.55,3.87
						l8.63-8.72c-2.68-2.58-5.83-4.61-9.41-6.09c-3.59-1.48-7.69-2.22-12.3-2.22c-4.33,0-8.35,0.75-12.05,2.26
						c-3.7,1.51-6.92,3.61-9.66,6.29c-2.75,2.68-4.88,5.85-6.42,9.5c-1.54,3.65-2.3,7.58-2.3,11.8c0,4.22,0.76,8.16,2.3,11.8
						c1.53,3.65,3.69,6.84,6.46,9.58c2.77,2.74,6,4.87,9.71,6.37c3.7,1.51,7.71,2.26,12.05,2.26c4.71,0,8.87-0.74,12.46-2.22
						c3.59-1.48,6.78-3.51,9.58-6.09l-8.72-8.72C946.71,511.33,944.82,512.62,942.62,513.55z"/>
					<path class="st2" d="M997.06,467.74h-11.67l-23.02,58.06h13.41l3.87-10.53h22.73l3.83,10.53h13.65L997.06,467.74z
						 M983.48,504.76l7.63-20.71l7.48,20.71H983.48z"/>
					<path class="st2" d="M1071.37,476.32c-1.7-2.77-4.04-4.89-7.02-6.35c-2.94-1.49-6.28-2.23-9.93-2.23h-24.3v58.06h12.91v-21.14
						h11.39c3.65,0,6.99-0.74,9.93-2.27c2.98-1.49,5.32-3.62,7.02-6.38c1.74-2.77,2.62-6.06,2.62-9.86
						C1073.99,482.38,1073.1,479.09,1071.37,476.32z M1059.98,490.75c-0.74,1.28-1.81,2.23-3.12,2.91
						c-1.31,0.64-2.77,0.96-4.36,0.96h-9.47v-16.85h9.47c1.6,0,3.05,0.32,4.36,0.99c1.31,0.64,2.38,1.6,3.12,2.87
						c0.78,1.24,1.17,2.77,1.17,4.5C1061.15,487.95,1060.76,489.51,1059.98,490.75z"/>
					<rect x="1085.32" y="467.74" class="st2" width="12.91" height="58.07"/>
					<polygon class="st2" points="1158.85,479 1158.85,467.74 1109.58,467.74 1109.58,479 1127.77,479 1127.77,525.8 1140.68,525.8 
						1140.68,479 					"/>
					<path class="st2" d="M1193.41,467.74h-11.67l-23.05,58.06h13.41l3.87-10.53h22.77l3.79,10.53h13.65L1193.41,467.74z
						 M1179.82,504.76l7.59-20.71l7.48,20.71H1179.82z"/>
					<polygon class="st2" points="1239.37,514.45 1239.37,467.74 1226.46,467.74 1226.46,525.8 1236.42,525.8 1239.37,525.8 
						1265.12,525.8 1265.12,514.45 					"/>
				</g>
				<g>
					<path class="st2" d="M945.71,557.4c-1.74-2.77-4.08-4.89-7.02-6.38c-2.98-1.49-6.28-2.2-9.97-2.2h-24.26v58.06h12.91v-21.14
						h11.35c3.69,0,6.99-0.74,9.97-2.27c2.94-1.53,5.28-3.65,7.02-6.42c1.74-2.77,2.59-6.03,2.59-9.82
						C948.29,563.43,947.44,560.16,945.71,557.4z M934.32,571.83c-0.78,1.24-1.81,2.23-3.12,2.87c-1.31,0.67-2.77,0.99-4.36,0.99
						h-9.47v-16.88h9.47c1.6,0,3.05,0.35,4.36,0.99c1.31,0.67,2.34,1.63,3.12,2.87c0.78,1.28,1.14,2.8,1.14,4.54
						C935.46,569.03,935.1,570.56,934.32,571.83z"/>
					<path class="st2" d="M986.07,548.81h-11.7l-23.02,58.06h13.41l3.87-10.53h22.77l3.8,10.53h13.65L986.07,548.81z M972.48,585.81
						l7.59-20.71l7.48,20.71H972.48z"/>
					<path class="st2" d="M1047.35,582.47c1.99-0.35,3.83-0.89,5.5-1.67c2.94-1.45,5.25-3.4,6.88-5.96
						c1.67-2.55,2.48-5.53,2.48-8.94c0-3.33-0.82-6.31-2.48-8.9c-1.63-2.55-3.9-4.58-6.81-6.03c-2.91-1.45-6.28-2.16-10.11-2.16
						h-23.69v58.06h12.91v-23.94h1.35l17.31,23.94h15.32L1047.35,582.47z M1041.25,573.39h-9.22v-14.58h9.29
						c2.59,0,4.54,0.71,5.92,2.06c1.38,1.38,2.06,3.12,2.06,5.21c0,2.23-0.71,4.01-2.09,5.32
						C1045.79,572.72,1043.81,573.39,1041.25,573.39z"/>
					<polygon class="st2" points="1069.78,560.07 1087.96,560.07 1087.96,606.87 1100.87,606.87 1100.87,560.07 1119.05,560.07 
						1119.05,548.8 1069.78,548.8 					"/>
					<polygon class="st2" points="1167,584.1 1139.45,548.8 1130.4,548.8 1130.4,606.87 1143.31,606.87 1143.31,572.08 
						1170.45,606.87 1179.91,606.87 1179.91,548.8 1167,548.8 					"/>
					<polygon class="st2" points="1208.12,582.6 1234.03,582.6 1234.03,571.83 1208.12,571.83 1208.12,559.9 1236.5,559.9 
						1236.5,548.8 1208.12,548.8 1205.08,548.8 1195.21,548.8 1195.21,606.87 1205.08,606.87 1208.12,606.87 1236.91,606.87 
						1236.91,595.68 1208.12,595.68 					"/>
					<path class="st2" d="M1278.14,582.47c1.99-0.35,3.83-0.89,5.5-1.67c2.94-1.45,5.25-3.4,6.92-5.96
						c1.63-2.55,2.45-5.53,2.45-8.94c0-3.33-0.82-6.31-2.45-8.9c-1.67-2.55-3.94-4.58-6.85-6.03c-2.91-1.45-6.28-2.16-10.11-2.16
						h-23.69v58.06h12.91v-23.94h1.35l17.31,23.94h15.32L1278.14,582.47z M1272.04,573.39h-9.22v-14.58h9.29
						c2.59,0,4.54,0.71,5.92,2.06c1.38,1.38,2.06,3.12,2.06,5.21c0,2.23-0.71,4.01-2.09,5.32
						C1276.61,572.72,1274.59,573.39,1272.04,573.39z"/>
					<path class="st2" d="M1339.43,577.3c-1.62-1.35-3.39-2.46-5.3-3.33c-1.92-0.88-3.85-1.65-5.8-2.3
						c-1.95-0.66-3.73-1.31-5.35-1.97c-1.62-0.66-2.92-1.44-3.91-2.34c-0.99-0.91-1.48-2.1-1.48-3.58c0-1.59,0.66-2.81,1.97-3.66
						c1.31-0.85,3.1-1.28,5.35-1.28c2.24,0,4.26,0.44,6.04,1.32c1.78,0.88,3.55,2.22,5.31,4.03l8.39-8.31
						c-2.19-2.47-4.98-4.41-8.35-5.84c-3.38-1.43-7.09-2.14-11.15-2.14c-4,0-7.54,0.67-10.61,2.02c-3.07,1.34-5.47,3.3-7.2,5.88
						c-1.73,2.58-2.59,5.65-2.59,9.21c0,2.96,0.5,5.41,1.48,7.36c0.99,1.95,2.29,3.56,3.9,4.85c1.62,1.29,3.39,2.36,5.31,3.21
						c1.92,0.85,3.85,1.6,5.8,2.26c1.94,0.66,3.73,1.34,5.34,2.06c1.62,0.71,2.92,1.56,3.91,2.55c0.99,0.99,1.48,2.27,1.48,3.87
						c0,1.75-0.76,3.12-2.26,4.11c-1.51,0.99-3.64,1.48-6.38,1.48c-3.01,0-5.66-0.59-7.94-1.77c-2.27-1.18-4.34-2.84-6.21-4.97
						l-8.39,8.3c2.85,3.18,5.99,5.55,9.42,7.12c3.43,1.56,7.53,2.34,12.3,2.34c6.96,0,12.42-1.57,16.36-4.73
						c3.95-3.15,5.92-7.5,5.92-13.03c0-3.01-0.49-5.55-1.48-7.61C1342.35,580.34,1341.05,578.64,1339.43,577.3z"/>
					<polygon class="st2" points="1389.81,548.8 1376.9,548.8 1376.9,606.87 1386.85,606.87 1389.81,606.87 1415.55,606.87 
						1415.55,595.51 1389.81,595.51 					"/>
					<polygon class="st2" points="1440.06,548.8 1427.15,548.8 1427.15,606.87 1437.1,606.87 1440.06,606.87 1465.81,606.87 
						1465.81,595.51 1440.06,595.51 					"/>
					<path class="st2" d="M1515.07,590.75c-1.59,1.64-3.48,2.94-5.68,3.87c-2.19,0.93-4.77,1.4-7.73,1.4
						c-2.52,0-4.84-0.44-6.95-1.31c-2.11-0.88-3.92-2.11-5.43-3.7c-1.51-1.59-2.69-3.51-3.54-5.76c-0.85-2.24-1.28-4.74-1.28-7.48
						c0-2.69,0.42-5.16,1.28-7.4c0.85-2.25,2.03-4.17,3.54-5.76c1.5-1.59,3.31-2.81,5.43-3.66c2.11-0.85,4.43-1.28,6.95-1.28
						c2.85,0,5.36,0.47,7.53,1.4c2.17,0.93,4.02,2.22,5.55,3.87l8.63-8.72c-2.68-2.58-5.83-4.61-9.41-6.09
						c-3.59-1.48-7.69-2.22-12.3-2.22c-4.33,0-8.35,0.75-12.05,2.26c-3.7,1.51-6.92,3.61-9.66,6.29c-2.75,2.68-4.88,5.85-6.42,9.5
						c-1.54,3.65-2.3,7.58-2.3,11.8s0.76,8.15,2.3,11.8c1.53,3.64,3.69,6.84,6.46,9.58s6,4.87,9.71,6.37
						c3.7,1.51,7.71,2.26,12.05,2.26c4.71,0,8.87-0.74,12.46-2.22c3.59-1.48,6.78-3.51,9.58-6.09L1515.07,590.75z"/>
				</g>
			</g>
			<rect x="904.46" y="626.59" class="st2" width="619.54" height="7.33"/>
		</g>
	</g>
	<g>
		<path class="st2" d="M816.21,484.12c0,14.72-8.76,22.06-22.42,22.06c-11.53,0-23.41,4.72-26.56,18.02l0.18-12.95l0.18-47.24h27.63
			C808.52,464.01,816.21,470.5,816.21,484.12z"/>
		<path class="st2" d="M429.09,376.62c-18.3,0-33.09,14.83-33.09,33.09v233.34h445.75c18.3,0,33.09-14.79,33.09-33.09V376.62H429.09
			z M480.87,582.33c-27.45-0.67-54.41-18.34-54.05-50.72h27.31c1.38,14.68,14.51,22.73,27.63,23.09
			c14.86,0.53,30.08-6.28,29.9-16.95c0.35-11.39-9.26-13.12-26.56-14.72c-26.25-2.27-55.12-6.99-55.65-38.98
			c-0.53-32.74,26.07-46.04,52.49-46.71c28.52-0.71,52.28,18.34,53.17,48.98h-27.45c-0.89-14.72-13.83-23.8-26.42-23.8
			c-13.65-0.18-24.15,5.96-24.51,18.55c-0.14,11.88,14.54,15.22,29.93,16.42c27.45,2.09,52.81,4.04,52.67,37.99
			C539.15,567.11,509.74,583.22,480.87,582.33z M569.04,600.49h-6.85V419.22h6.85V600.49z M642.99,555.45
			c16.63,1.56,28.34-7.52,30.79-24.65h28.16c-4.19,32.88-27.98,51.25-59.3,50.19c-40.4-1.56-58.77-30.96-57.71-72.25
			c0.85-42.31,22.56-72.07,65.76-69.98c28.52,1.42,49.87,18.55,51.25,47.95l-28.16-0.18c-2.8-14.54-9.61-22.24-24.12-23.27
			c-24.69-2.09-35.01,23.09-35.54,44.94C613.45,530.8,621.82,553.35,642.99,555.45z M723.89,600.49h-6.85V419.22h6.85V600.49z
			 M829.69,519.84c-13.12,8.19-26.07,1.38-40.43,2.8c-11.88,1.21-21.67,5.75-21.67,18.16v40.08h-27.98V438.83h53.52
			c28.16-0.53,50.9,10.32,50.9,45.15C844.02,499.2,839.66,513.52,829.69,519.84z"/>
	</g>
	<g>
		<path class="st2" d="M414.55,687.21c-1.06,0.96-2.66,1.45-4.75,1.45c-2.38,0-4.11-0.82-5.18-2.48c-1.1-1.67-1.67-4.33-1.67-7.94
			v-2.52c0.04-3.44,0.64-5.99,1.77-7.66c1.13-1.63,2.84-2.45,5.14-2.45c2.13,0,3.69,0.46,4.72,1.45c1.03,0.96,1.63,2.52,1.81,4.68
			h6.88c-0.36-3.72-1.74-6.63-4.08-8.69c-2.38-2.06-5.46-3.09-9.33-3.09c-2.77,0-5.21,0.64-7.34,1.95
			c-2.09,1.31-3.69,3.19-4.82,5.64c-1.14,2.45-1.7,5.28-1.7,8.48v2.06c0,5.04,1.21,8.97,3.69,11.88c2.45,2.87,5.82,4.33,10.11,4.33
			c3.9,0,7.06-1.06,9.43-3.12c2.41-2.06,3.72-4.89,4.01-8.48h-6.88C416.18,684.72,415.58,686.25,414.55,687.21z"/>
		<path class="st2" d="M447.43,688.09v-10.78c0-2.77-0.92-4.93-2.7-6.46c-1.81-1.56-4.26-2.31-7.31-2.31
			c-2.02,0-3.83,0.32-5.46,1.03c-1.63,0.71-2.87,1.67-3.76,2.87c-0.89,1.24-1.35,2.55-1.35,4.01h6.67c0-0.92,0.28-1.67,0.92-2.2
			c0.64-0.53,1.53-0.82,2.62-0.82c1.28,0,2.2,0.35,2.8,1.03c0.6,0.71,0.89,1.63,0.89,2.77v1.42h-3.05c-3.69,0-6.49,0.74-8.44,2.13
			c-1.99,1.42-2.94,3.44-2.94,6.06c0,2.13,0.82,3.9,2.41,5.32c1.6,1.42,3.62,2.13,6.03,2.13c2.59,0,4.65-0.92,6.28-2.7
			c0.14,0.89,0.35,1.63,0.64,2.23h6.7v-0.39C447.75,692.24,447.43,690.43,447.43,688.09z M440.76,686.82
			c-0.39,0.71-0.99,1.31-1.84,1.74c-0.82,0.43-1.74,0.67-2.7,0.67c-1.03,0-1.81-0.28-2.38-0.82c-0.6-0.53-0.89-1.21-0.89-2.06
			l0.04-0.39c0.21-2.27,1.95-3.44,5.28-3.44h2.48V686.82z"/>
		<path class="st2" d="M472.33,671.92c-1.7-2.23-4.08-3.37-7.16-3.37c-2.55,0-4.68,0.96-6.28,2.87l-0.21-2.41h-6.17v34.37h6.63
			v-11.7c1.56,1.74,3.58,2.62,6.1,2.62c2.94,0,5.28-1.17,7.02-3.48c1.74-2.31,2.59-5.36,2.59-9.19v-0.35
			C474.84,677.31,474.03,674.19,472.33,671.92z M463.49,688.94c-2.09,0-3.55-0.82-4.36-2.45v-10.18c0.78-1.6,2.23-2.38,4.29-2.38
			c1.56,0,2.77,0.6,3.58,1.88c0.82,1.24,1.21,3.01,1.21,5.36C468.21,686.36,466.65,688.94,463.49,688.94z"/>
		<path class="st2" d="M479.31,669.01v24.83h6.67v-24.83H479.31z M485.34,660.11c-0.67-0.64-1.56-0.96-2.7-0.96
			c-1.17,0-2.06,0.32-2.73,0.96s-0.99,1.45-0.99,2.45c0,1.03,0.35,1.84,1.03,2.48c0.67,0.64,1.56,0.96,2.7,0.96
			c1.1,0,2.02-0.32,2.7-0.96c0.67-0.64,1.03-1.45,1.03-2.48C486.37,661.56,486.02,660.75,485.34,660.11z"/>
		<path class="st2" d="M501.9,688.84c-0.99,0-1.67-0.21-2.02-0.6c-0.35-0.39-0.53-1.06-0.53-1.99v-12.38h4.26v-4.86h-4.26v-6.14
			h-6.6v6.14h-3.65v4.86h3.65v13.37c0.07,4.68,2.45,7.06,7.09,7.06c1.38,0,2.73-0.21,4.01-0.6v-5.04
			C503.29,688.77,502.65,688.84,501.9,688.84z"/>
		<path class="st2" d="M527.41,688.09v-10.78c0-2.77-0.89-4.93-2.7-6.46c-1.81-1.56-4.22-2.31-7.27-2.31
			c-2.02,0-3.87,0.32-5.46,1.03c-1.63,0.71-2.87,1.67-3.76,2.87c-0.92,1.24-1.35,2.55-1.35,4.01h6.63c0-0.92,0.32-1.67,0.96-2.2
			c0.64-0.53,1.49-0.82,2.62-0.82c1.28,0,2.2,0.35,2.8,1.03c0.57,0.71,0.85,1.63,0.85,2.77v1.42h-3.05c-3.69,0-6.49,0.74-8.44,2.13
			c-1.95,1.42-2.91,3.44-2.91,6.06c0,2.13,0.78,3.9,2.38,5.32c1.6,1.42,3.62,2.13,6.06,2.13c2.55,0,4.65-0.92,6.24-2.7
			c0.14,0.89,0.35,1.63,0.67,2.23h6.7v-0.39C527.76,692.24,527.44,690.43,527.41,688.09z M520.74,686.82
			c-0.39,0.71-0.99,1.31-1.81,1.74c-0.85,0.43-1.74,0.67-2.73,0.67c-0.99,0-1.81-0.28-2.38-0.82c-0.57-0.53-0.89-1.21-0.89-2.06
			l0.04-0.39c0.21-2.27,1.99-3.44,5.32-3.44h2.45V686.82z"/>
		<path class="st2" d="M532.83,658.58v35.25h6.67v-35.25H532.83z"/>
		<path class="st2" d="M581.53,669.01l-3.26,15.78l-4.54-15.78h-4.79l-4.54,15.78l-3.23-15.78h-6.42l6.35,24.83h5.53l4.68-15.64
			l4.72,15.64h5.57l6.31-24.83H581.53z"/>
		<path class="st2" d="M591.57,669.01v24.83h6.63v-24.83H591.57z M597.6,660.11c-0.67-0.64-1.6-0.96-2.73-0.96
			c-1.14,0-2.06,0.32-2.7,0.96c-0.67,0.64-0.99,1.45-0.99,2.45c0,1.03,0.32,1.84,0.99,2.48c0.67,0.64,1.6,0.96,2.7,0.96
			c1.13,0,2.02-0.32,2.7-0.96c0.71-0.64,1.03-1.45,1.03-2.48C598.59,661.56,598.27,660.75,597.6,660.11z"/>
		<path class="st2" d="M614.16,688.84c-0.99,0-1.67-0.21-2.02-0.6c-0.35-0.39-0.53-1.06-0.53-1.99v-12.38h4.26v-4.86h-4.26v-6.14
			h-6.63v6.14h-3.62v4.86h3.62v13.37c0.11,4.68,2.45,7.06,7.13,7.06c1.35,0,2.7-0.21,4.01-0.6v-5.04
			C615.54,688.77,614.9,688.84,614.16,688.84z"/>
		<path class="st2" d="M632.64,668.55c-2.66,0-4.86,1.03-6.63,3.16v-13.12h-6.63v35.25H626v-17.66c0.89-1.49,2.31-2.23,4.22-2.23
			c1.42,0,2.45,0.32,3.05,0.99c0.64,0.71,0.92,1.74,0.92,3.19v15.71h6.63v-15.92C640.76,671.67,638.03,668.55,632.64,668.55z"/>
		<path class="st2" d="M668.28,679.97c-0.25-3.51-1.42-6.31-3.55-8.37c-2.13-2.02-4.86-3.05-8.19-3.05c-2.38,0-4.43,0.5-6.21,1.56
			c-1.77,1.06-3.16,2.55-4.11,4.47c-0.92,1.95-1.42,4.15-1.42,6.6v0.32c0,3.94,1.06,7.06,3.19,9.36c2.16,2.27,5,3.44,8.58,3.44
			s6.42-1.17,8.55-3.48c2.13-2.31,3.19-5.36,3.19-9.15L668.28,679.97z M660.34,687.1c-0.89,1.24-2.16,1.84-3.76,1.84
			c-1.63,0-2.91-0.64-3.8-1.88c-0.89-1.24-1.35-3.05-1.35-5.43c0-2.62,0.46-4.61,1.35-5.85c0.89-1.28,2.13-1.92,3.76-1.92
			c1.63,0,2.91,0.64,3.8,1.92c0.92,1.28,1.35,3.09,1.35,5.39C661.68,683.87,661.26,685.86,660.34,687.1z"/>
		<path class="st2" d="M687.04,669.01v17.59c-0.82,1.56-2.38,2.34-4.61,2.34c-2.38,0-3.55-1.31-3.55-3.9v-16.03h-6.63v16.24
			c0.04,2.98,0.74,5.21,2.16,6.74c1.38,1.53,3.4,2.31,6.06,2.31c2.91,0,5.18-0.99,6.81-2.98l0.18,2.52h6.24v-24.83H687.04z"/>
		<path class="st2" d="M709.21,688.84c-0.99,0-1.67-0.21-2.02-0.6c-0.35-0.39-0.53-1.06-0.53-1.99v-12.38h4.26v-4.86h-4.26v-6.14
			h-6.63v6.14h-3.62v4.86h3.62v13.37c0.07,4.68,2.45,7.06,7.09,7.06c1.38,0,2.73-0.21,4.04-0.6v-5.04
			C710.59,688.77,709.92,688.84,709.21,688.84z"/>
		<path class="st2" d="M726.62,658.58v35.25h6.67v-35.25H726.62z"/>
		<path class="st2" d="M739.11,669.01v24.83h6.63v-24.83H739.11z M745.14,660.11c-0.67-0.64-1.56-0.96-2.7-0.96
			c-1.17,0-2.06,0.32-2.73,0.96s-0.99,1.45-0.99,2.45c0,1.03,0.32,1.84,1.03,2.48c0.67,0.64,1.56,0.96,2.7,0.96
			c1.1,0,1.99-0.32,2.7-0.96c0.67-0.64,0.99-1.45,0.99-2.48C746.13,661.56,745.81,660.75,745.14,660.11z"/>
		<path class="st2" d="M784.83,670.89c-1.31-1.56-3.3-2.34-5.99-2.34c-3.23,0-5.71,1.24-7.48,3.76c-1.17-2.52-3.37-3.76-6.56-3.76
			c-3.01,0-5.39,1.06-7.13,3.23l-0.21-2.77h-6.24v24.83h6.63v-17.56c0.85-1.56,2.2-2.34,4.11-2.34c1.35,0,2.31,0.32,2.87,0.96
			c0.57,0.64,0.85,1.67,0.85,3.12v15.82h6.63l-0.04-17.06c0.78-1.92,2.16-2.84,4.15-2.84c1.38,0,2.34,0.32,2.91,0.96
			c0.53,0.67,0.82,1.7,0.82,3.09v15.85h6.67v-15.85C786.81,674.83,786.14,672.45,784.83,670.89z"/>
		<path class="st2" d="M792.24,669.01v24.83h6.67v-24.83H792.24z M798.27,660.11c-0.67-0.64-1.56-0.96-2.7-0.96
			c-1.13,0-2.06,0.32-2.73,0.96c-0.64,0.64-0.99,1.45-0.99,2.45c0,1.03,0.35,1.84,1.03,2.48c0.67,0.64,1.6,0.96,2.7,0.96
			c1.14,0,2.02-0.32,2.7-0.96c0.67-0.64,1.03-1.45,1.03-2.48C799.3,661.56,798.94,660.75,798.27,660.11z"/>
		<path class="st2" d="M814.87,688.84c-0.99,0-1.67-0.21-2.02-0.6c-0.35-0.39-0.53-1.06-0.53-1.99v-12.38h4.22v-4.86h-4.22v-6.14
			h-6.63v6.14h-3.62v4.86h3.62v13.37c0.07,4.68,2.45,7.06,7.09,7.06c1.38,0,2.73-0.21,4.04-0.6v-5.04
			C816.25,688.77,815.58,688.84,814.87,688.84z"/>
		<path class="st2" d="M834.87,680.01c-1.1-0.43-2.52-0.78-4.15-1.1c-1.67-0.32-2.84-0.71-3.55-1.17c-0.67-0.46-1.03-1.06-1.03-1.77
			c0-0.78,0.32-1.45,0.92-1.95c0.6-0.5,1.45-0.74,2.59-0.74c1.31,0,2.27,0.32,2.87,0.92c0.6,0.64,0.92,1.42,0.92,2.34h6.63
			c0-2.34-0.96-4.29-2.84-5.78c-1.92-1.45-4.43-2.2-7.55-2.2c-2.98,0-5.36,0.71-7.2,2.2c-1.81,1.49-2.73,3.33-2.73,5.53
			c0,3.76,2.94,6.28,8.87,7.52c1.77,0.35,3.05,0.78,3.87,1.24c0.78,0.46,1.21,1.1,1.21,1.92c0,0.78-0.32,1.42-0.99,1.92
			c-0.64,0.46-1.6,0.71-2.87,0.71c-1.35,0-2.45-0.32-3.26-0.96c-0.82-0.6-1.24-1.53-1.31-2.7h-6.28c0,1.49,0.46,2.91,1.38,4.19
			c0.92,1.31,2.16,2.31,3.79,3.05c1.6,0.74,3.48,1.13,5.53,1.13c3.09,0,5.6-0.71,7.52-2.13c1.95-1.38,2.94-3.23,2.94-5.5
			C840.16,683.52,838.38,681.28,834.87,680.01z"/>
		<path class="st2" d="M851.19,687.99c-0.71-0.64-1.6-0.96-2.7-0.96c-1.06,0-1.95,0.32-2.66,0.96c-0.71,0.67-1.06,1.53-1.06,2.59
			c0,1.03,0.35,1.88,1.03,2.52c0.71,0.67,1.6,0.99,2.7,0.99c1.1,0,2.02-0.32,2.7-0.99c0.71-0.64,1.06-1.49,1.06-2.52
			C852.25,689.51,851.89,688.66,851.19,687.99z"/>
		<path class="st2" d="M883.18,674.12c-2.13-0.64-3.72-1.35-4.82-2.06c-1.1-0.74-1.63-1.67-1.63-2.73c0-1.17,0.46-2.13,1.38-2.84
			c0.96-0.71,2.27-1.06,3.94-1.06c1.74,0,3.09,0.43,4.08,1.28c0.96,0.85,1.42,2.06,1.42,3.58h6.88c0-2.02-0.5-3.8-1.53-5.39
			c-1.03-1.56-2.48-2.77-4.36-3.65c-1.88-0.85-3.97-1.28-6.38-1.28c-2.38,0-4.5,0.39-6.42,1.17c-1.88,0.82-3.37,1.92-4.36,3.33
			c-1.03,1.42-1.53,3.01-1.53,4.82c0,3.48,1.88,6.24,5.67,8.3c1.38,0.74,3.3,1.49,5.67,2.27c2.38,0.78,4.04,1.49,4.97,2.2
			c0.92,0.71,1.38,1.7,1.38,2.98c0,1.21-0.46,2.13-1.38,2.8c-0.92,0.67-2.2,0.99-3.83,0.99c-4.4,0-6.63-1.84-6.63-5.53h-6.88
			c0,2.16,0.53,4.08,1.67,5.71c1.1,1.63,2.7,2.91,4.82,3.87c2.09,0.92,4.43,1.42,7.02,1.42c3.69,0,6.63-0.85,8.83-2.48
			c2.2-1.63,3.26-3.9,3.26-6.81c0-2.59-0.89-4.75-2.66-6.49C889.95,676.74,887.11,675.29,883.18,674.12z"/>
		<path class="st2" d="M921.09,679.97c-0.25-3.51-1.42-6.31-3.55-8.37c-2.09-2.02-4.86-3.05-8.19-3.05c-2.34,0-4.43,0.5-6.21,1.56
			c-1.77,1.06-3.16,2.55-4.11,4.47c-0.92,1.95-1.42,4.15-1.42,6.6v0.32c0,3.94,1.06,7.06,3.23,9.36c2.13,2.27,4.97,3.44,8.55,3.44
			s6.46-1.17,8.58-3.48c2.13-2.31,3.19-5.36,3.19-9.15L921.09,679.97z M913.15,687.1c-0.89,1.24-2.13,1.84-3.76,1.84
			c-1.63,0-2.91-0.64-3.8-1.88s-1.35-3.05-1.35-5.43c0-2.62,0.46-4.61,1.35-5.85c0.89-1.28,2.13-1.92,3.76-1.92s2.91,0.64,3.8,1.92
			c0.92,1.28,1.38,3.09,1.38,5.39C914.53,683.87,914.07,685.86,913.15,687.1z"/>
		<path class="st2" d="M925.56,658.58v35.25h6.67v-35.25H925.56z"/>
		<path class="st2" d="M952.34,669.01v17.59c-0.85,1.56-2.38,2.34-4.65,2.34c-2.34,0-3.55-1.31-3.55-3.9v-16.03h-6.63v16.24
			c0.04,2.98,0.78,5.21,2.16,6.74c1.38,1.53,3.44,2.31,6.1,2.31c2.87,0,5.14-0.99,6.77-2.98l0.18,2.52h6.24v-24.83H952.34z"/>
		<path class="st2" d="M974.47,688.84c-0.99,0-1.67-0.21-2.02-0.6c-0.35-0.39-0.53-1.06-0.53-1.99v-12.38h4.26v-4.86h-4.26v-6.14
			h-6.63v6.14h-3.62v4.86h3.62v13.37c0.11,4.68,2.48,7.06,7.13,7.06c1.38,0,2.7-0.21,4.01-0.6v-5.04
			C975.85,688.77,975.21,688.84,974.47,688.84z"/>
		<path class="st2" d="M980.22,669.01v24.83h6.67v-24.83H980.22z M986.24,660.11c-0.67-0.64-1.56-0.96-2.7-0.96
			c-1.17,0-2.06,0.32-2.73,0.96c-0.67,0.64-0.99,1.45-0.99,2.45c0,1.03,0.35,1.84,1.03,2.48c0.67,0.64,1.56,0.96,2.7,0.96
			c1.1,0,2.02-0.32,2.7-0.96c0.67-0.64,1.03-1.45,1.03-2.48C987.27,661.56,986.92,660.75,986.24,660.11z"/>
		<path class="st2" d="M1014.76,679.97c-0.25-3.51-1.42-6.31-3.55-8.37c-2.09-2.02-4.82-3.05-8.19-3.05c-2.34,0-4.43,0.5-6.21,1.56
			c-1.77,1.06-3.16,2.55-4.08,4.47c-0.96,1.95-1.45,4.15-1.45,6.6v0.32c0,3.94,1.1,7.06,3.23,9.36c2.13,2.27,4.97,3.44,8.55,3.44
			s6.46-1.17,8.58-3.48c2.13-2.31,3.19-5.36,3.19-9.15L1014.76,679.97z M1006.82,687.1c-0.89,1.24-2.13,1.84-3.76,1.84
			c-1.63,0-2.91-0.64-3.79-1.88c-0.89-1.24-1.35-3.05-1.35-5.43c0-2.62,0.46-4.61,1.35-5.85c0.89-1.28,2.13-1.92,3.76-1.92
			c1.63,0,2.91,0.64,3.79,1.92c0.92,1.28,1.38,3.09,1.38,5.39C1008.2,683.87,1007.74,685.86,1006.82,687.1z"/>
		<path class="st2" d="M1038.24,670.86c-1.31-1.56-3.26-2.31-5.89-2.31c-2.98,0-5.36,1.1-7.13,3.3l-0.21-2.84h-6.24v24.83h6.63
			v-17.52c0.92-1.6,2.34-2.38,4.19-2.38c1.42,0,2.45,0.32,3.05,0.96c0.64,0.64,0.92,1.63,0.92,3.05v15.89h6.63v-16.07
			C1040.15,674.72,1039.52,672.42,1038.24,670.86z"/>
		<path class="st2" d="M1059.87,680.01c-1.14-0.43-2.52-0.78-4.19-1.1c-1.67-0.32-2.84-0.71-3.51-1.17
			c-0.71-0.46-1.06-1.06-1.06-1.77c0-0.78,0.32-1.45,0.92-1.95c0.6-0.5,1.49-0.74,2.59-0.74c1.31,0,2.27,0.32,2.87,0.92
			c0.6,0.64,0.92,1.42,0.92,2.34h6.63c0-2.34-0.96-4.29-2.84-5.78c-1.88-1.45-4.4-2.2-7.55-2.2c-2.94,0-5.36,0.71-7.16,2.2
			c-1.84,1.49-2.77,3.33-2.77,5.53c0,3.76,2.98,6.28,8.87,7.52c1.77,0.35,3.05,0.78,3.87,1.24c0.82,0.46,1.21,1.1,1.21,1.92
			c0,0.78-0.32,1.42-0.96,1.92c-0.67,0.46-1.63,0.71-2.91,0.71c-1.35,0-2.45-0.32-3.23-0.96c-0.82-0.6-1.28-1.53-1.31-2.7h-6.31
			c0,1.49,0.46,2.91,1.38,4.19c0.92,1.31,2.2,2.31,3.79,3.05c1.63,0.74,3.48,1.13,5.57,1.13c3.05,0,5.57-0.71,7.52-2.13
			c1.92-1.38,2.91-3.23,2.91-5.5C1065.12,683.52,1063.39,681.28,1059.87,680.01z"/>
		<path class="st2" d="M1105.95,669.01l-3.26,15.78l-4.5-15.78h-4.82l-4.54,15.78l-3.23-15.78h-6.38l6.31,24.83h5.53l4.72-15.64
			l4.68,15.64h5.57l6.31-24.83H1105.95z"/>
		<path class="st2" d="M1115.98,669.01v24.83h6.63v-24.83H1115.98z M1122.01,660.11c-0.67-0.64-1.6-0.96-2.73-0.96
			s-2.02,0.32-2.7,0.96c-0.67,0.64-0.99,1.45-0.99,2.45c0,1.03,0.32,1.84,0.99,2.48c0.71,0.64,1.6,0.96,2.7,0.96
			c1.14,0,2.02-0.32,2.7-0.96c0.71-0.64,1.03-1.45,1.03-2.48C1123.01,661.56,1122.69,660.75,1122.01,660.11z"/>
		<path class="st2" d="M1138.58,688.84c-0.99,0-1.67-0.21-2.02-0.6c-0.35-0.39-0.53-1.06-0.53-1.99v-12.38h4.26v-4.86h-4.26v-6.14
			h-6.63v6.14h-3.62v4.86h3.62v13.37c0.11,4.68,2.48,7.06,7.13,7.06c1.38,0,2.7-0.21,4.01-0.6v-5.04
			C1139.96,688.77,1139.32,688.84,1138.58,688.84z"/>
		<path class="st2" d="M1157.05,668.55c-2.66,0-4.86,1.03-6.63,3.16v-13.12h-6.6v35.25h6.6v-17.66c0.89-1.49,2.31-2.23,4.26-2.23
			c1.42,0,2.41,0.32,3.05,0.99c0.6,0.71,0.89,1.74,0.89,3.19v15.71h6.63v-15.92C1165.18,671.67,1162.45,668.55,1157.05,668.55z"/>
		<path class="st2" d="M1192.7,679.97c-0.25-3.51-1.42-6.31-3.55-8.37c-2.09-2.02-4.86-3.05-8.19-3.05c-2.34,0-4.43,0.5-6.21,1.56
			c-1.77,1.06-3.16,2.55-4.08,4.47c-0.96,1.95-1.45,4.15-1.45,6.6v0.32c0,3.94,1.06,7.06,3.23,9.36c2.13,2.27,4.97,3.44,8.55,3.44
			c3.58,0,6.45-1.17,8.58-3.48c2.13-2.31,3.19-5.36,3.19-9.15L1192.7,679.97z M1184.75,687.1c-0.89,1.24-2.13,1.84-3.76,1.84
			c-1.63,0-2.91-0.64-3.8-1.88c-0.89-1.24-1.35-3.05-1.35-5.43c0-2.62,0.46-4.61,1.35-5.85c0.89-1.28,2.13-1.92,3.76-1.92
			c1.63,0,2.91,0.64,3.8,1.92c0.92,1.28,1.38,3.09,1.38,5.39C1186.14,683.87,1185.68,685.86,1184.75,687.1z"/>
		<path class="st2" d="M1211.5,669.01v17.59c-0.85,1.56-2.41,2.34-4.65,2.34c-2.38,0-3.55-1.31-3.55-3.9v-16.03h-6.63v16.24
			c0.04,2.98,0.74,5.21,2.16,6.74c1.38,1.53,3.4,2.31,6.06,2.31c2.91,0,5.18-0.99,6.81-2.98l0.18,2.52h6.24v-24.83H1211.5z"/>
		<path class="st2" d="M1233.63,688.84c-0.99,0-1.67-0.21-2.02-0.6c-0.35-0.39-0.53-1.06-0.53-1.99v-12.38h4.26v-4.86h-4.26v-6.14
			h-6.63v6.14h-3.62v4.86h3.62v13.37c0.11,4.68,2.45,7.06,7.13,7.06c1.35,0,2.7-0.21,4.01-0.6v-5.04
			C1235.01,688.77,1234.37,688.84,1233.63,688.84z"/>
		<path class="st2" d="M1264.02,687.92c-0.74,0.67-1.74,1.03-2.98,1.03c-1.6,0-2.77-0.57-3.55-1.67c-0.78-1.14-1.17-2.98-1.17-5.53
			v-0.67c0-2.55,0.39-4.36,1.17-5.5c0.78-1.13,1.95-1.7,3.51-1.7c1.24,0,2.27,0.43,3.01,1.24c0.78,0.78,1.17,1.84,1.21,3.12h6.21
			c-0.04-2.91-0.99-5.28-2.84-7.06c-1.88-1.74-4.36-2.62-7.48-2.62c-3.55,0-6.35,1.13-8.37,3.4c-2.06,2.27-3.05,5.32-3.05,9.15v0.46
			c0,3.97,1.03,7.06,3.09,9.33c2.02,2.27,4.82,3.4,8.37,3.4c1.92,0,3.65-0.39,5.21-1.17c1.56-0.78,2.8-1.84,3.69-3.26
			c0.92-1.38,1.38-2.94,1.38-4.61h-6.21C1265.19,686.36,1264.8,687.24,1264.02,687.92z"/>
		<path class="st2" d="M1297.68,679.97c-0.25-3.51-1.45-6.31-3.55-8.37c-2.13-2.02-4.86-3.05-8.23-3.05c-2.34,0-4.4,0.5-6.21,1.56
			c-1.77,1.06-3.12,2.55-4.08,4.47c-0.96,1.95-1.42,4.15-1.42,6.6v0.32c0,3.94,1.06,7.06,3.19,9.36c2.13,2.27,5,3.44,8.58,3.44
			c3.58,0,6.42-1.17,8.55-3.48c2.13-2.31,3.19-5.36,3.19-9.15L1297.68,679.97z M1289.74,687.1c-0.92,1.24-2.16,1.84-3.76,1.84
			c-1.67,0-2.94-0.64-3.83-1.88c-0.89-1.24-1.31-3.05-1.31-5.43c0-2.62,0.43-4.61,1.31-5.85c0.89-1.28,2.16-1.92,3.76-1.92
			c1.67,0,2.91,0.64,3.83,1.92c0.89,1.28,1.35,3.09,1.35,5.39C1291.09,683.87,1290.62,685.86,1289.74,687.1z"/>
		<path class="st2" d="M1335.42,670.89c-1.31-1.56-3.33-2.34-5.99-2.34c-3.23,0-5.75,1.24-7.48,3.76c-1.17-2.52-3.37-3.76-6.56-3.76
			c-3.01,0-5.39,1.06-7.16,3.23l-0.21-2.77h-6.21v24.83h6.63v-17.56c0.85-1.56,2.2-2.34,4.08-2.34c1.38,0,2.34,0.32,2.91,0.96
			c0.57,0.64,0.85,1.67,0.85,3.12v15.82h6.63l-0.04-17.06c0.78-1.92,2.13-2.84,4.15-2.84c1.38,0,2.34,0.32,2.91,0.96
			c0.53,0.67,0.82,1.7,0.82,3.09v15.85h6.67v-15.85C1337.41,674.83,1336.73,672.45,1335.42,670.89z"/>
		<path class="st2" d="M1362.3,671.92c-1.7-2.23-4.08-3.37-7.16-3.37c-2.55,0-4.68,0.96-6.28,2.87l-0.21-2.41h-6.17v34.37h6.63
			v-11.7c1.56,1.74,3.58,2.62,6.1,2.62c2.94,0,5.28-1.17,7.02-3.48c1.74-2.31,2.59-5.36,2.59-9.19v-0.35
			C1364.82,677.31,1364.01,674.19,1362.3,671.92z M1353.47,688.94c-2.09,0-3.55-0.82-4.36-2.45v-10.18c0.78-1.6,2.23-2.38,4.29-2.38
			c1.56,0,2.77,0.6,3.58,1.88c0.82,1.24,1.21,3.01,1.21,5.36C1358.19,686.36,1356.63,688.94,1353.47,688.94z"/>
		<path class="st2" d="M1380.92,668.55c-2.34,0-4.19,1.13-5.53,3.4l-0.18-2.94h-6.28v24.83h6.63v-16.24
			c0.78-1.7,2.45-2.55,4.93-2.55c0.71,0,1.49,0.07,2.41,0.18l0.07-6.38C1382.34,668.62,1381.67,668.55,1380.92,668.55z"/>
		<path class="st2" d="M1407.7,679.97c-0.25-3.51-1.42-6.31-3.55-8.37c-2.13-2.02-4.86-3.05-8.19-3.05c-2.38,0-4.43,0.5-6.21,1.56
			c-1.77,1.06-3.16,2.55-4.11,4.47c-0.92,1.95-1.42,4.15-1.42,6.6v0.32c0,3.94,1.06,7.06,3.19,9.36c2.16,2.27,5,3.44,8.58,3.44
			c3.58,0,6.42-1.17,8.55-3.48c2.13-2.31,3.19-5.36,3.19-9.15L1407.7,679.97z M1399.76,687.1c-0.89,1.24-2.16,1.84-3.76,1.84
			c-1.63,0-2.91-0.64-3.8-1.88s-1.35-3.05-1.35-5.43c0-2.62,0.46-4.61,1.35-5.85c0.89-1.28,2.13-1.92,3.76-1.92
			c1.63,0,2.91,0.64,3.8,1.92c0.92,1.28,1.35,3.09,1.35,5.39C1401.1,683.87,1400.68,685.86,1399.76,687.1z"/>
		<path class="st2" d="M1445.44,670.89c-1.31-1.56-3.3-2.34-5.99-2.34c-3.23,0-5.71,1.24-7.45,3.76c-1.21-2.52-3.4-3.76-6.6-3.76
			c-3.01,0-5.39,1.06-7.13,3.23l-0.21-2.77h-6.21v24.83h6.63v-17.56c0.82-1.56,2.2-2.34,4.08-2.34c1.35,0,2.31,0.32,2.87,0.96
			c0.57,0.64,0.85,1.67,0.85,3.12v15.82h6.63v-17.06c0.74-1.92,2.13-2.84,4.11-2.84c1.38,0,2.38,0.32,2.91,0.96
			c0.57,0.67,0.82,1.7,0.82,3.09v15.85h6.67v-15.85C1447.42,674.83,1446.79,672.45,1445.44,670.89z"/>
		<path class="st2" d="M1452.85,669.01v24.83h6.67v-24.83H1452.85z M1458.92,660.11c-0.67-0.64-1.6-0.96-2.73-0.96
			c-1.13,0-2.06,0.32-2.7,0.96c-0.67,0.64-1.03,1.45-1.03,2.45c0,1.03,0.35,1.84,1.03,2.48c0.67,0.64,1.6,0.96,2.7,0.96
			c1.14,0,2.02-0.32,2.7-0.96c0.71-0.64,1.03-1.45,1.03-2.48C1459.91,661.56,1459.59,660.75,1458.92,660.11z"/>
		<path class="st2" d="M1479.63,680.01c-1.14-0.43-2.52-0.78-4.19-1.1c-1.67-0.32-2.84-0.71-3.51-1.17
			c-0.71-0.46-1.06-1.06-1.06-1.77c0-0.78,0.32-1.45,0.92-1.95c0.6-0.5,1.49-0.74,2.59-0.74c1.31,0,2.27,0.32,2.87,0.92
			c0.64,0.64,0.92,1.42,0.92,2.34h6.63c0-2.34-0.96-4.29-2.84-5.78c-1.88-1.45-4.4-2.2-7.55-2.2c-2.94,0-5.36,0.71-7.16,2.2
			c-1.84,1.49-2.73,3.33-2.73,5.53c0,3.76,2.94,6.28,8.83,7.52c1.77,0.35,3.09,0.78,3.87,1.24c0.82,0.46,1.21,1.1,1.21,1.92
			c0,0.78-0.32,1.42-0.96,1.92c-0.67,0.46-1.63,0.71-2.87,0.71c-1.38,0-2.45-0.32-3.26-0.96c-0.82-0.6-1.28-1.53-1.31-2.7h-6.31
			c0,1.49,0.46,2.91,1.38,4.19c0.92,1.31,2.2,2.31,3.8,3.05c1.63,0.74,3.48,1.13,5.57,1.13c3.05,0,5.57-0.71,7.52-2.13
			c1.95-1.38,2.91-3.23,2.91-5.5C1484.88,683.52,1483.14,681.28,1479.63,680.01z"/>
		<path class="st2" d="M1510.77,680.86c0-3.94-0.96-6.95-2.91-9.12c-1.95-2.13-4.61-3.19-8.02-3.19c-2.27,0-4.29,0.53-6.06,1.6
			c-1.74,1.06-3.12,2.55-4.08,4.54c-0.96,1.95-1.45,4.19-1.45,6.67v0.64c0,3.72,1.14,6.7,3.44,8.94c2.27,2.23,5.25,3.37,8.9,3.37
			c2.06,0,3.94-0.39,5.64-1.21c1.7-0.78,3.05-1.88,4.04-3.3l-3.26-3.62c-1.45,1.84-3.44,2.77-5.99,2.77c-1.67,0-3.01-0.5-4.11-1.49
			c-1.06-0.96-1.7-2.27-1.92-3.9h15.78V680.86z M1504.28,679.05h-9.22c0.21-1.67,0.74-2.94,1.56-3.83c0.82-0.89,1.88-1.35,3.19-1.35
			c1.42,0,2.48,0.43,3.26,1.24c0.78,0.78,1.17,1.92,1.21,3.4V679.05z"/>
		<path class="st2" d="M1521.34,687.99c-0.71-0.64-1.63-0.96-2.7-0.96c-1.06,0-1.99,0.32-2.7,0.96c-0.71,0.67-1.06,1.53-1.06,2.59
			c0,1.03,0.35,1.88,1.06,2.52c0.71,0.67,1.6,0.99,2.7,0.99c1.1,0,1.99-0.32,2.7-0.99c0.71-0.64,1.06-1.49,1.06-2.52
			C1522.4,689.51,1522.05,688.66,1521.34,687.99z"/>
	</g>
</g>
</svg>
